<?xml version="1.0" encoding="UTF-8" standalone="no"?>
<!-- Created with Inkscape (http://www.inkscape.org/) -->

<svg
   xmlns:dc="http://purl.org/dc/elements/1.1/"
   xmlns:cc="http://creativecommons.org/ns#"
   xmlns:rdf="http://www.w3.org/1999/02/22-rdf-syntax-ns#"
   xmlns:svg="http://www.w3.org/2000/svg"
   xmlns="http://www.w3.org/2000/svg"
   xmlns:sodipodi="http://sodipodi.sourceforge.net/DTD/sodipodi-0.dtd"
   xmlns:inkscape="http://www.inkscape.org/namespaces/inkscape"
   version="1.1"
   id="svg2"
   xml:space="preserve"
   width="699.50665"
   height="238.89333"
   viewBox="0 0 699.50665 238.89333"
   sodipodi:docname="TRAFIG_vek_4c.svg"
   inkscape:version="0.92.4 5da689c313, 2019-01-14"><metadata
     id="metadata8"><rdf:RDF><cc:Work
         rdf:about=""><dc:format>image/svg+xml</dc:format><dc:type
           rdf:resource="http://purl.org/dc/dcmitype/StillImage" /><dc:title></dc:title></cc:Work></rdf:RDF></metadata><defs
     id="defs6" /><sodipodi:namedview
     pagecolor="#ffffff"
     bordercolor="#666666"
     borderopacity="1"
     objecttolerance="10"
     gridtolerance="10"
     guidetolerance="10"
     inkscape:pageopacity="0"
     inkscape:pageshadow="2"
     inkscape:window-width="1411"
     inkscape:window-height="820"
     id="namedview4"
     showgrid="false"
     inkscape:zoom="1.0092828"
     inkscape:cx="344.51553"
     inkscape:cy="66.468938"
     inkscape:window-x="328"
     inkscape:window-y="128"
     inkscape:window-maximized="0"
     inkscape:current-layer="g10" /><g
     id="g10"
     inkscape:groupmode="layer"
     inkscape:label="ink_ext_XXXXXX"
     transform="matrix(1.3333333,0,0,-1.3333333,0,238.89333)"><g
       id="g12"
       transform="scale(0.1)"><path
         d="M 552.719,1551.44 V 655.961 h -252 V 1551.44 H 0.00390625 v 223.44 H 853.441 V 1551.44 H 552.719"
         style="fill:#137ba3;fill-opacity:1;fill-rule:nonzero;stroke:none"
         id="path14"
         inkscape:connector-curvature="0" /><path
         d="m 1569.12,1433.84 c 0,84 -31.93,117.6 -134.41,117.6 H 1234.8 v -329.29 h 199.91 c 107.52,0 134.41,38.65 134.41,122.65 z M 1382.64,1003.77 H 1234.8 V 655.961 H 982.797 V 1774.88 h 465.363 c 272.16,0 372.96,-107.52 372.96,-317.52 v -137.77 c 0,-139.43 -50.4,-233.51 -162.96,-280.55 l 270.48,-383.079 h -299.05 l -246.95,347.809"
         style="fill:#137ba3;fill-opacity:1;fill-rule:nonzero;stroke:none"
         id="path16"
         inkscape:connector-curvature="0" /><path
         d="m 2375.51,1084.4 h 257.02 l -127.67,468.72 z m 640.06,-428.439 h -262.08 l -60.48,218.434 h -374.62 l -60.47,-218.434 h -262.09 l 341.04,1118.919 h 335.98 L 3015.57,655.961"
         style="fill:#137ba3;fill-opacity:1;fill-rule:nonzero;stroke:none"
         id="path18"
         inkscape:connector-curvature="0" /><path
         d="M 3141.56,655.961 V 1774.88 h 710.63 v -223.44 h -458.63 v -238.56 h 423.36 V 1089.44 H 3393.56 V 655.961 h -252"
         style="fill:#137ba3;fill-opacity:1;fill-rule:nonzero;stroke:none"
         id="path20"
         inkscape:connector-curvature="0" /><path
         d="m 4856.81,639.148 c -272.17,0 -409.92,139.461 -409.92,342.77 v 467.042 c 0,206.64 137.75,342.72 409.92,342.72 129.35,0 262.08,-16.8 357.83,-35.28 l -30.23,-220.08 c -97.44,15.12 -246.96,26.88 -327.6,26.88 -126,0 -157.92,-65.52 -157.92,-152.88 V 1025.6 c 0,-87.362 31.92,-159.616 157.92,-159.616 50.39,0 84,1.684 149.52,10.09 V 1218.8 H 5243.2 V 692.93 c -122.64,-35.282 -257.04,-53.782 -386.39,-53.782"
         style="fill:#137ba3;fill-opacity:1;fill-rule:nonzero;stroke:none"
         id="path22"
         inkscape:connector-curvature="0" /><path
         d="M 63.1797,225.18 H 8.71484 v 32.511 H 154.539 V 225.18 H 100.074 V 62.6719 H 63.1797 V 225.18"
         style="fill:#43474c;fill-opacity:1;fill-rule:nonzero;stroke:none"
         id="path24"
         inkscape:connector-curvature="0" /><path
         d="M 232.422,175.398 C 218.656,169.25 207.535,162.809 194.648,154.609 V 62.6719 H 158.926 V 205.262 h 30.16 l 2.34,-15.813 c 7.906,5.281 24.89,15.231 37.48,18.742 l 3.516,-32.793"
         style="fill:#43474c;fill-opacity:1;fill-rule:nonzero;stroke:none"
         id="path26"
         inkscape:connector-curvature="0" /><path
         d="m 326.992,116.539 h -26.351 c -11.715,0 -14.934,-3.219 -14.934,-14.051 0,-9.9567 3.219,-14.3474 14.348,-14.3474 10.543,0 20.203,3.5078 26.937,7.3203 z m 35.727,-53.8671 h -29.281 l -2.637,9.6484 c -12.887,-8.4805 -28.11,-12.582 -42.461,-12.582 -26.059,0 -37.188,17.8633 -37.188,42.4607 0,28.981 12.594,40.11 41.582,40.11 h 34.258 v 14.941 c 0,15.809 -4.39,21.371 -27.23,21.371 -12.883,0 -26.942,-1.75 -39.532,-4.391 l -4.39,27.231 c 13.473,4.098 33.086,6.73 48.902,6.73 44.801,0 57.977,-15.812 57.977,-51.531 V 62.6719"
         style="fill:#43474c;fill-opacity:1;fill-rule:nonzero;stroke:none"
         id="path28"
         inkscape:connector-curvature="0" /><path
         d="M 486.57,62.6719 V 162.23 c 0,7.598 -3.218,11.411 -11.418,11.411 -8.785,0 -24.3,-5.27 -37.187,-12 V 62.6719 H 402.242 V 205.262 h 27.231 l 3.515,-12 c 17.864,8.789 40.407,14.929 57.094,14.929 23.723,0 32.215,-16.691 32.215,-42.16 V 62.6719 H 486.57"
         style="fill:#43474c;fill-opacity:1;fill-rule:nonzero;stroke:none"
         id="path30"
         inkscape:connector-curvature="0" /><path
         d="m 607.496,59.7383 c -15.226,0 -36.016,3.5117 -49.195,8.2031 l 4.98,27.2305 c 12.008,-3.5235 27.817,-6.1524 42.457,-6.1524 15.817,0 18.153,3.5118 18.153,14.3515 0,8.777 -1.75,13.168 -24.887,18.738 -34.844,8.493 -38.945,17.27 -38.945,44.789 0,28.711 12.593,41.293 53.293,41.293 13.175,0 30.453,-1.75 42.753,-4.98 l -3.515,-28.402 c -10.836,2.062 -28.113,4.113 -39.238,4.113 -15.52,0 -18.157,-3.524 -18.157,-12.313 0,-11.41 0.879,-12.289 20.203,-17.269 39.829,-10.539 43.633,-15.809 43.633,-45.09 0,-27.5312 -8.488,-44.5117 -51.535,-44.5117"
         style="fill:#43474c;fill-opacity:1;fill-rule:nonzero;stroke:none"
         id="path32"
         inkscape:connector-curvature="0" /><path
         d="M 779.957,62.6719 V 162.23 c 0,7.598 -3.223,11.411 -11.422,11.411 -8.785,0 -24.301,-5.27 -37.187,-12 V 62.6719 H 695.625 V 205.262 h 27.23 l 3.516,-12 c 17.863,8.789 40.406,14.929 57.098,14.929 23.719,0 32.211,-16.691 32.211,-42.16 V 62.6719 h -35.723"
         style="fill:#43474c;fill-opacity:1;fill-rule:nonzero;stroke:none"
         id="path34"
         inkscape:connector-curvature="0" /><path
         d="m 926.641,116.539 h -26.352 c -11.715,0 -14.934,-3.219 -14.934,-14.051 0,-9.9567 3.219,-14.3474 14.348,-14.3474 10.539,0 20.203,3.5078 26.938,7.3203 z m 35.726,-53.8671 h -29.281 l -2.637,9.6484 c -12.886,-8.4805 -28.109,-12.582 -42.461,-12.582 -26.058,0 -37.187,17.8633 -37.187,42.4607 0,28.981 12.594,40.11 41.582,40.11 h 34.258 v 14.941 c 0,15.809 -4.391,21.371 -27.231,21.371 -12.883,0 -26.937,-1.75 -39.531,-4.391 l -4.391,27.231 c 13.473,4.098 33.086,6.73 48.903,6.73 44.797,0 57.976,-15.812 57.976,-51.531 V 62.6719"
         style="fill:#43474c;fill-opacity:1;fill-rule:nonzero;stroke:none"
         id="path36"
         inkscape:connector-curvature="0" /><path
         d="m 1077.73,65.3008 c -7.61,-3.2188 -22.26,-5.5625 -31.33,-5.5625 -26.06,0 -39.24,12.3008 -39.24,37.7734 v 79.3593 h -21.375 v 28.391 h 21.375 v 35.429 l 35.72,4.981 v -40.41 h 36.61 l -2.35,-28.391 h -34.26 v -74.672 c 0,-7.617 3.52,-12.5896 12.89,-12.5896 5.27,0 11.71,1.1601 17.86,2.9219 l 4.1,-27.2305"
         style="fill:#43474c;fill-opacity:1;fill-rule:nonzero;stroke:none"
         id="path38"
         inkscape:connector-curvature="0" /><path
         d="M 1107.29,62.6719 V 205.262 h 35.73 V 62.6719 Z m 0,162.7971 v 41.293 h 35.73 v -41.293 h -35.73"
         style="fill:#43474c;fill-opacity:1;fill-rule:nonzero;stroke:none"
         id="path40"
         inkscape:connector-curvature="0" /><path
         d="m 1241.11,177.738 c -19.03,0 -26.35,-8.488 -26.35,-24.597 v -38.352 c 0,-16.1093 7.32,-24.5898 26.35,-24.5898 19.03,0 26.35,8.4805 26.35,24.5898 v 38.352 c 0,16.109 -7.32,24.597 -26.35,24.597 z m 0,-117.9997 c -48.9,0 -62.08,26.9414 -62.08,56.2227 v 36.008 c 0,29.293 13.18,56.222 62.08,56.222 48.9,0 62.07,-26.929 62.07,-56.222 v -36.008 c 0,-29.2813 -13.17,-56.2227 -62.07,-56.2227"
         style="fill:#43474c;fill-opacity:1;fill-rule:nonzero;stroke:none"
         id="path42"
         inkscape:connector-curvature="0" /><path
         d="M 1423.52,62.6719 V 162.23 c 0,7.598 -3.22,11.411 -11.42,11.411 -8.78,0 -24.3,-5.27 -37.19,-12 V 62.6719 h -35.72 V 205.262 h 27.23 l 3.52,-12 c 17.86,8.789 40.4,14.929 57.09,14.929 23.72,0 32.21,-16.691 32.21,-42.16 V 62.6719 h -35.72"
         style="fill:#43474c;fill-opacity:1;fill-rule:nonzero;stroke:none"
         id="path44"
         inkscape:connector-curvature="0" /><path
         d="m 1570.21,116.539 h -26.35 c -11.72,0 -14.93,-3.219 -14.93,-14.051 0,-9.9567 3.21,-14.3474 14.34,-14.3474 10.54,0 20.21,3.5078 26.94,7.3203 z m 35.73,-53.8671 h -29.28 l -2.64,9.6484 c -12.89,-8.4805 -28.11,-12.582 -42.46,-12.582 -26.06,0 -37.19,17.8633 -37.19,42.4607 0,28.981 12.59,40.11 41.58,40.11 h 34.26 v 14.941 c 0,15.809 -4.39,21.371 -27.23,21.371 -12.88,0 -26.94,-1.75 -39.53,-4.391 l -4.39,27.231 c 13.46,4.098 33.08,6.73 48.9,6.73 44.8,0 57.98,-15.812 57.98,-51.531 V 62.6719"
         style="fill:#43474c;fill-opacity:1;fill-rule:nonzero;stroke:none"
         id="path46"
         inkscape:connector-curvature="0" /><path
         d="M 1645.45,62.6719 V 263.539 l 35.73,4.981 V 62.6719 h -35.73"
         style="fill:#43474c;fill-opacity:1;fill-rule:nonzero;stroke:none"
         id="path48"
         inkscape:connector-curvature="0" /><path
         d="M 1788.05,62.6719 V 257.691 h 120.64 V 225.18 h -83.75 v -51.828 h 77.3 v -32.5 h -77.3 V 62.6719 h -36.89"
         style="fill:#43474c;fill-opacity:1;fill-rule:nonzero;stroke:none"
         id="path50"
         inkscape:connector-curvature="0" /><path
         d="M 1940.88,62.6719 V 205.262 h 35.73 V 62.6719 Z m 0,162.7971 v 41.293 h 35.73 v -41.293 h -35.73"
         style="fill:#43474c;fill-opacity:1;fill-rule:nonzero;stroke:none"
         id="path52"
         inkscape:connector-curvature="0" /><path
         d="m 2067.67,179.5 c -17.58,0 -23.72,-6.441 -23.72,-19.91 v -10.84 c 0,-14.051 7.02,-19.328 23.72,-19.328 16.98,0 24,5.566 24,19.328 v 10.84 c 0,13.469 -6.14,19.91 -24,19.91 z m -8.2,-78.469 c -4.69,-2.9294 -8.5,-7.0427 -8.5,-11.4216 0,-3.8086 2.35,-5.5703 7.91,-6.1485 15.81,-1.7617 24.6,-2.6406 41.29,-4.4023 23.13,-2.6289 30.45,-14.0469 30.45,-34.5469 0,-30.4531 -11.13,-42.46092 -64.42,-42.46092 -16.4,0 -38.94,2.33985 -55.05,7.32813 l 4.39,26.64059 c 15.23,-3.8007 31.34,-6.1484 48.02,-6.1484 28.41,0 33.97,2.0508 33.97,11.418 0,8.7929 -2.63,10.25 -13.47,11.4218 -16.39,1.75 -23.13,2.6289 -41.29,4.6797 -20.2,2.3477 -28.11,9.0782 -28.11,27.2383 0,11.7109 7.91,19.3321 14.94,24.3121 -13.18,7.899 -19.33,21.071 -19.33,38.348 v 13.473 c 0.59,29.566 16.11,47.429 57.4,47.429 9.66,0 17.27,-1.171 24.3,-2.929 h 43.92 v -17.864 c -4.98,-1.457 -10.84,-2.918 -15.81,-4.378 3.22,-6.149 4.97,-14.059 4.97,-22.258 v -13.473 c 0,-28.988 -17.56,-46.559 -57.38,-46.559 -2.93,0 -5.57,0 -8.2,0.301"
         style="fill:#43474c;fill-opacity:1;fill-rule:nonzero;stroke:none"
         id="path54"
         inkscape:connector-curvature="0" /><path
         d="m 2197.96,205.262 v -99.551 c 0,-7.6094 3.22,-11.4219 11.42,-11.4219 8.78,0 24.3,5.2695 37.19,12.0119 v 98.961 h 35.72 V 62.6719 h -27.23 l -3.52,12 c -17.86,-8.7813 -40.4,-14.9336 -57.09,-14.9336 -23.72,0 -32.21,16.6914 -32.21,42.1597 v 103.364 h 35.72"
         style="fill:#43474c;fill-opacity:1;fill-rule:nonzero;stroke:none"
         id="path56"
         inkscape:connector-curvature="0" /><path
         d="m 2398.24,175.398 c -13.77,-6.148 -24.89,-12.589 -37.78,-20.789 V 62.6719 h -35.72 V 205.262 h 30.16 l 2.34,-15.813 c 7.91,5.281 24.89,15.231 37.48,18.742 l 3.52,-32.793"
         style="fill:#43474c;fill-opacity:1;fill-rule:nonzero;stroke:none"
         id="path58"
         inkscape:connector-curvature="0" /><path
         d="m 2492.81,116.539 h -26.35 c -11.72,0 -14.94,-3.219 -14.94,-14.051 0,-9.9567 3.22,-14.3474 14.35,-14.3474 10.54,0 20.2,3.5078 26.94,7.3203 z m 35.73,-53.8671 h -29.29 l -2.63,9.6484 c -12.89,-8.4805 -28.11,-12.582 -42.46,-12.582 -26.06,0 -37.19,17.8633 -37.19,42.4607 0,28.981 12.59,40.11 41.58,40.11 h 34.26 v 14.941 c 0,15.809 -4.39,21.371 -27.23,21.371 -12.88,0 -26.94,-1.75 -39.54,-4.391 l -4.38,27.231 c 13.46,4.098 33.08,6.73 48.9,6.73 44.8,0 57.98,-15.812 57.98,-51.531 V 62.6719"
         style="fill:#43474c;fill-opacity:1;fill-rule:nonzero;stroke:none"
         id="path60"
         inkscape:connector-curvature="0" /><path
         d="m 2643.89,65.3008 c -7.61,-3.2188 -22.24,-5.5625 -31.33,-5.5625 -26.06,0 -39.23,12.3008 -39.23,37.7734 v 79.3593 h -21.38 v 28.391 h 21.38 v 35.429 l 35.72,4.981 v -40.41 h 36.6 l -2.34,-28.391 h -34.26 v -74.672 c 0,-7.617 3.51,-12.5896 12.89,-12.5896 5.26,0 11.71,1.1601 17.86,2.9219 l 4.09,-27.2305"
         style="fill:#43474c;fill-opacity:1;fill-rule:nonzero;stroke:none"
         id="path62"
         inkscape:connector-curvature="0" /><path
         d="M 2673.46,62.6719 V 205.262 h 35.72 V 62.6719 Z m 0,162.7971 v 41.293 h 35.72 v -41.293 h -35.72"
         style="fill:#43474c;fill-opacity:1;fill-rule:nonzero;stroke:none"
         id="path64"
         inkscape:connector-curvature="0" /><path
         d="m 2807.27,177.738 c -19.03,0 -26.36,-8.488 -26.36,-24.597 v -38.352 c 0,-16.1093 7.33,-24.5898 26.36,-24.5898 19.03,0 26.36,8.4805 26.36,24.5898 v 38.352 c 0,16.109 -7.33,24.597 -26.36,24.597 z m 0,-117.9997 c -48.9,0 -62.08,26.9414 -62.08,56.2227 v 36.008 c 0,29.293 13.18,56.222 62.08,56.222 48.9,0 62.08,-26.929 62.08,-56.222 v -36.008 c 0,-29.2813 -13.18,-56.2227 -62.08,-56.2227"
         style="fill:#43474c;fill-opacity:1;fill-rule:nonzero;stroke:none"
         id="path66"
         inkscape:connector-curvature="0" /><path
         d="M 2989.68,62.6719 V 162.23 c 0,7.598 -3.21,11.411 -11.41,11.411 -8.79,0 -24.31,-5.27 -37.19,-12 V 62.6719 h -35.72 V 205.262 h 27.22 l 3.52,-12 c 17.86,8.789 40.41,14.929 57.1,14.929 23.72,0 32.21,-16.691 32.21,-42.16 V 62.6719 h -35.73"
         style="fill:#43474c;fill-opacity:1;fill-rule:nonzero;stroke:none"
         id="path68"
         inkscape:connector-curvature="0" /><path
         d="m 3110.61,59.7383 c -15.23,0 -36.03,3.5117 -49.2,8.2031 l 4.98,27.2305 c 12,-3.5235 27.81,-6.1524 42.46,-6.1524 15.81,0 18.16,3.5118 18.16,14.3515 0,8.777 -1.76,13.168 -24.9,18.738 -34.84,8.493 -38.94,17.27 -38.94,44.789 0,28.711 12.59,41.293 53.29,41.293 13.18,0 30.46,-1.75 42.75,-4.98 l -3.51,-28.402 c -10.83,2.062 -28.11,4.113 -39.24,4.113 -15.52,0 -18.15,-3.524 -18.15,-12.313 0,-11.41 0.87,-12.289 20.2,-17.269 39.82,-10.539 43.63,-15.809 43.63,-45.09 0,-27.5312 -8.49,-44.5117 -51.53,-44.5117"
         style="fill:#43474c;fill-opacity:1;fill-rule:nonzero;stroke:none"
         id="path70"
         inkscape:connector-curvature="0" /><path
         d="m 3317.32,177.738 c -19.03,0 -26.36,-8.488 -26.36,-24.597 v -38.352 c 0,-16.1093 7.33,-24.5898 26.36,-24.5898 19.03,0 26.36,8.4805 26.36,24.5898 v 38.352 c 0,16.109 -7.33,24.597 -26.36,24.597 z m 0,-117.9997 c -48.9,0 -62.08,26.9414 -62.08,56.2227 v 36.008 c 0,29.293 13.18,56.222 62.08,56.222 48.9,0 62.08,-26.929 62.08,-56.222 v -36.008 c 0,-29.2813 -13.18,-56.2227 -62.08,-56.2227"
         style="fill:#43474c;fill-opacity:1;fill-rule:nonzero;stroke:none"
         id="path72"
         inkscape:connector-curvature="0" /><path
         d="m 3497.4,237.77 c -6.74,1.468 -14.65,2.351 -20.5,2.351 -14.06,0 -16.11,-6.16 -16.11,-16.992 v -17.867 h 36.31 l -2.05,-28.391 h -34.26 V 62.6719 h -35.73 V 176.871 h -22.83 v 28.391 h 22.83 v 19.918 c 0,29.582 13.77,44.211 45.39,44.211 11.13,0 21.38,-1.461 30.75,-4.102 l -3.8,-27.519"
         style="fill:#43474c;fill-opacity:1;fill-rule:nonzero;stroke:none"
         id="path74"
         inkscape:connector-curvature="0" /><path
         d="m 3624.46,95.1719 h 31.91 c 24.89,0 31.62,9.9571 31.62,28.6991 v 72.609 c 0,18.739 -6.73,28.7 -31.62,28.7 h -31.91 z m 35.72,162.5191 c 48.02,0 64.72,-24.312 64.72,-52.429 v -90.18 c 0,-27.8125 -16.7,-52.4101 -64.72,-52.4101 h -72.62 V 257.691 h 72.62"
         style="fill:#43474c;fill-opacity:1;fill-rule:nonzero;stroke:none"
         id="path76"
         inkscape:connector-curvature="0" /><path
         d="M 3764.41,62.6719 V 205.262 h 35.72 V 62.6719 Z m 0,162.7971 v 41.293 h 35.72 v -41.293 h -35.72"
         style="fill:#43474c;fill-opacity:1;fill-rule:nonzero;stroke:none"
         id="path78"
         inkscape:connector-curvature="0" /><path
         d="m 3886.81,59.7383 c -15.23,0 -36.02,3.5117 -49.2,8.2031 l 4.98,27.2305 c 12,-3.5235 27.82,-6.1524 42.46,-6.1524 15.81,0 18.16,3.5118 18.16,14.3515 0,8.777 -1.76,13.168 -24.89,18.738 -34.85,8.493 -38.95,17.27 -38.95,44.789 0,28.711 12.59,41.293 53.29,41.293 13.18,0 30.46,-1.75 42.76,-4.98 l -3.52,-28.402 c -10.83,2.062 -28.11,4.113 -39.24,4.113 -15.52,0 -18.15,-3.524 -18.15,-12.313 0,-11.41 0.88,-12.289 20.2,-17.269 39.83,-10.539 43.63,-15.809 43.63,-45.09 0,-27.5312 -8.49,-44.5117 -51.53,-44.5117"
         style="fill:#43474c;fill-opacity:1;fill-rule:nonzero;stroke:none"
         id="path80"
         inkscape:connector-curvature="0" /><path
         d="m 4010.66,93.9883 c 9.37,-2.0469 21.38,-3.7891 31.62,-3.7891 12.89,0 17.86,6.1406 17.86,19.0308 v 50.36 c 0,11.711 -4.38,18.148 -17.57,18.148 -11.71,0 -24.29,-5.859 -31.91,-12.879 z m 85.2,16.1137 c 0,-31.6215 -14.05,-50.3637 -47.13,-50.3637 -12.59,0 -26.95,1.75 -38.07,4.1015 V 4.98047 L 3974.94,0 v 205.262 h 28.39 l 3.52,-12 c 12.6,9.078 27.24,14.929 45.1,14.929 28.69,0 43.91,-16.98 43.91,-49.48 v -48.609"
         style="fill:#43474c;fill-opacity:1;fill-rule:nonzero;stroke:none"
         id="path82"
         inkscape:connector-curvature="0" /><path
         d="M 4132.46,62.6719 V 263.539 l 35.72,4.981 V 62.6719 h -35.72"
         style="fill:#43474c;fill-opacity:1;fill-rule:nonzero;stroke:none"
         id="path84"
         inkscape:connector-curvature="0" /><path
         d="m 4280.61,116.539 h -26.35 c -11.72,0 -14.94,-3.219 -14.94,-14.051 0,-9.9567 3.22,-14.3474 14.36,-14.3474 10.53,0 20.2,3.5078 26.93,7.3203 z m 35.72,-53.8671 h -29.27 l -2.64,9.6484 c -12.88,-8.4805 -28.12,-12.582 -42.46,-12.582 -26.06,0 -37.19,17.8633 -37.19,42.4607 0,28.981 12.6,40.11 41.58,40.11 h 34.26 v 14.941 c 0,15.809 -4.39,21.371 -27.23,21.371 -12.89,0 -26.94,-1.75 -39.53,-4.391 l -4.39,27.231 c 13.46,4.098 33.08,6.73 48.89,6.73 44.81,0 57.98,-15.812 57.98,-51.531 V 62.6719"
         style="fill:#43474c;fill-opacity:1;fill-rule:nonzero;stroke:none"
         id="path86"
         inkscape:connector-curvature="0" /><path
         d="m 4349.42,114.488 v 38.953 c 0,38.36 16.69,54.75 61.49,54.75 9.95,0 24.31,-1.75 34.85,-5.261 l -4.4,-29.289 c -9.66,2.64 -22.54,3.808 -29.57,3.808 -20.5,0 -26.65,-6.148 -26.65,-23.719 v -39.531 c 0,-17.5701 6.15,-23.7107 26.65,-23.7107 9.07,0 19.33,1.1601 29.57,3.8008 l 4.4,-29.2774 c -9.37,-3.2226 -23.14,-5.2734 -34.85,-5.2734 -44.8,0 -61.49,16.3906 -61.49,54.7497"
         style="fill:#43474c;fill-opacity:1;fill-rule:nonzero;stroke:none"
         id="path88"
         inkscape:connector-curvature="0" /><path
         d="m 4506.94,149.039 h 45.39 v 7.031 c 0,13.469 -4.1,22.852 -21.67,22.852 -17.57,0 -23.72,-9.383 -23.72,-22.852 z m 27.82,-60.0195 c 13.76,0 28.11,2.0391 43.63,6.7305 l 5.56,-26.9297 c -16.1,-6.1484 -35.43,-9.082 -52.41,-9.082 -44.81,0 -60.32,20.793 -60.32,55.0507 v 37.77 c 0,30.16 13.47,55.632 59.15,55.632 45.68,0 55.92,-26.64 55.92,-57.39 v -30.449 h -79.35 v -7.321 c 0,-17.281 6.15,-24.0115 27.82,-24.0115"
         style="fill:#43474c;fill-opacity:1;fill-rule:nonzero;stroke:none"
         id="path90"
         inkscape:connector-curvature="0" /><path
         d="M 4704.28,62.6719 V 162.23 c 0,7.598 -3.21,11.411 -11.41,11.411 -8.79,0 -24.31,-5.27 -37.19,-12 V 62.6719 h -35.72 V 205.262 h 27.22 l 3.52,-12 c 17.86,8.789 40.41,14.929 57.1,14.929 13.76,0 22.25,-5.55 26.94,-15.222 17.28,8.793 40.12,15.222 57.39,15.222 23.71,0 32.21,-16.691 32.21,-42.16 V 62.6719 h -35.72 V 162.23 c 0,7.598 -3.22,11.411 -11.42,11.411 -8.79,0 -26.06,-5.559 -37.19,-12 V 62.6719 h -35.73"
         style="fill:#43474c;fill-opacity:1;fill-rule:nonzero;stroke:none"
         id="path92"
         inkscape:connector-curvature="0" /><path
         d="m 4894.6,149.039 h 45.4 v 7.031 c 0,13.469 -4.11,22.852 -21.67,22.852 -17.57,0 -23.73,-9.383 -23.73,-22.852 z m 27.83,-60.0195 c 13.76,0 28.1,2.0391 43.63,6.7305 l 5.56,-26.9297 c -16.11,-6.1484 -35.43,-9.082 -52.42,-9.082 -44.8,0 -60.32,20.793 -60.32,55.0507 v 37.77 c 0,30.16 13.48,55.632 59.15,55.632 45.69,0 55.93,-26.64 55.93,-57.39 v -30.449 h -79.36 v -7.321 c 0,-17.281 6.16,-24.0115 27.83,-24.0115"
         style="fill:#43474c;fill-opacity:1;fill-rule:nonzero;stroke:none"
         id="path94"
         inkscape:connector-curvature="0" /><path
         d="M 5091.95,62.6719 V 162.23 c 0,7.598 -3.21,11.411 -11.42,11.411 -8.79,0 -24.3,-5.27 -37.19,-12 V 62.6719 h -35.72 V 205.262 h 27.23 l 3.51,-12 c 17.87,8.789 40.41,14.929 57.1,14.929 23.72,0 32.21,-16.691 32.21,-42.16 V 62.6719 h -35.72"
         style="fill:#43474c;fill-opacity:1;fill-rule:nonzero;stroke:none"
         id="path96"
         inkscape:connector-curvature="0" /><path
         d="m 5244.5,65.3008 c -7.62,-3.2188 -22.26,-5.5625 -31.33,-5.5625 -26.07,0 -39.24,12.3008 -39.24,37.7734 v 79.3593 h -21.38 v 28.391 h 21.38 v 35.429 l 35.72,4.981 v -40.41 h 36.6 l -2.34,-28.391 h -34.26 v -74.672 c 0,-7.617 3.52,-12.5896 12.88,-12.5896 5.28,0 11.71,1.1601 17.87,2.9219 l 4.1,-27.2305"
         style="fill:#43474c;fill-opacity:1;fill-rule:nonzero;stroke:none"
         id="path98"
         inkscape:connector-curvature="0" /><path
         d="m 4300.92,1630.32 c 0,-79.85 -64.72,-144.57 -144.55,-144.57 -79.86,0 -144.59,64.72 -144.59,144.57 0,79.84 64.73,144.57 144.59,144.57 79.83,0 144.55,-64.73 144.55,-144.57"
         style="display:inline;fill:#43474c;fill-opacity:1;fill-rule:nonzero;stroke:none"
         id="path100"
         inkscape:connector-curvature="0"
         inkscape:label="path100" /></g></g></svg>